<svg xmlns="http://www.w3.org/2000/svg" width="79" height="20" role="img" aria-label="LinkedIn">
  <title>LinkedIn</title>
  <defs>
    <linearGradient id="s" x2="0" y2="100%">
      <stop offset="0" stop-color="#bbb" stop-opacity=".1"/>
      <stop offset="1" stop-opacity=".1"/>
    </linearGradient>
    <clipPath id="r"><rect width="79" height="20" rx="3"/></clipPath>
  </defs>
  <g clip-path="url(#r)">
    <rect width="79" height="20" fill="#0077b5"/>
    <rect width="79" height="20" fill="url(#s)"/>
  </g>
  <svg x="5" y="3" width="14" height="14" viewBox="0 0 24 24" fill="#fff" aria-hidden="true">
    <path d="M20.447 20.452h-3.554v-5.569c0-1.328-.027-3.037-1.852-3.037-1.853 0-2.136 1.445-2.136 2.939v5.667H9.351V9h3.414v1.561h.047c.477-.9 1.637-1.85 3.37-1.85 3.601 0 4.267 2.37 4.267 5.455v6.286zM5.337 7.433a2.062 2.062 0 1 1 0-4.124 2.062 2.062 0 0 1 0 4.124zM7.119 20.452H3.555V9h3.564v11.452z"/>
  </svg>
  <text x="48" y="14" fill="#fff" text-anchor="middle" font-family="Verdana,Geneva,DejaVu Sans,sans-serif" font-size="11">LinkedIn</text>
</svg>
